<?xml version="1.0" standalone="no"?>
<!DOCTYPE svg PUBLIC "-//W3C//DTD SVG 20010904//EN"
 "http://www.w3.org/TR/2001/REC-SVG-20010904/DTD/svg10.dtd">
<svg version="1.0" xmlns="http://www.w3.org/2000/svg"
 width="2240.000000pt" height="1260.000000pt" viewBox="0 0 2240.000000 1260.000000"
 preserveAspectRatio="xMidYMid meet">

<g transform="translate(0.000000,1260.000000) scale(0.100000,-0.100000)"
fill="#000000" stroke="none">
<path d="M5978 6885 c-50 -28 -74 -102 -63 -193 6 -45 13 -62 40 -89 27 -27
40 -33 77 -33 23 0 52 7 62 15 25 19 36 19 36 0 0 -8 7 -15 15 -15 12 0 15 16
15 85 l0 85 -66 0 c-48 0 -65 -3 -62 -12 3 -7 24 -14 47 -16 l43 -3 -5 -37
c-11 -69 -80 -94 -133 -49 -24 21 -27 32 -31 98 -4 62 -1 79 16 106 37 58 113
56 141 -4 19 -42 53 -46 44 -5 -4 15 -17 38 -29 51 -29 30 -107 39 -147 16z"/>
<path d="M6310 6765 l0 -137 29 -29 c24 -24 38 -29 76 -29 38 0 52 5 76 29
l29 29 0 136 c0 129 -1 136 -20 136 -19 0 -20 -7 -20 -134 0 -128 -1 -136 -22
-150 -29 -21 -61 -20 -87 2 -19 15 -21 29 -23 147 -3 114 -5 130 -20 133 -16
3 -18 -8 -18 -133z"/>
<path d="M6670 6735 c0 -158 1 -165 20 -165 19 0 20 7 20 165 0 158 -1 165
-20 165 -19 0 -20 -7 -20 -165z"/>
<path d="M6840 6880 c0 -17 6 -20 45 -20 l45 0 0 -145 c0 -138 1 -145 20 -145
19 0 20 7 20 145 l0 145 46 0 c38 0 45 3 42 18 -3 15 -18 17 -111 20 -102 3
-107 2 -107 -18z"/>
<path d="M7208 6752 c-26 -81 -50 -156 -54 -165 -4 -12 -1 -17 13 -17 14 0 23
11 32 40 l12 41 66 -3 c66 -3 66 -3 78 -38 8 -23 19 -36 32 -38 21 -3 20 -1
-9 90 -16 51 -40 125 -52 163 -19 60 -25 70 -47 73 -23 3 -27 -4 -71 -146z
m97 27 c13 -46 25 -87 25 -91 0 -5 -25 -8 -56 -8 -40 0 -54 3 -51 13 3 6 15
49 28 94 13 45 25 81 26 79 2 -2 14 -41 28 -87z"/>
<path d="M7530 6735 c0 -156 1 -165 19 -165 17 0 19 8 19 73 l0 72 44 3 45 3
33 -76 c25 -56 38 -75 52 -75 11 0 18 4 16 8 -1 4 -16 38 -31 74 l-29 65 26
26 c19 19 26 36 26 64 -1 70 -39 93 -151 93 l-69 0 0 -165z m175 101 c14 -20
14 -29 4 -48 -17 -33 -28 -38 -86 -38 l-53 0 0 55 0 55 60 0 c52 0 62 -3 75
-24z"/>
<path d="M7892 6739 c3 -147 5 -164 21 -167 15 -3 17 6 17 73 l0 76 48 -3 47
-3 30 -72 c21 -51 35 -73 48 -73 23 0 22 6 -13 83 l-30 66 30 30 c37 37 39 79
6 117 -21 26 -30 28 -115 32 l-92 4 3 -163z m178 102 c29 -56 -2 -91 -82 -91
l-58 0 0 55 0 55 65 0 c53 0 66 -3 75 -19z"/>
<path d="M8279 6740 c-29 -88 -49 -163 -46 -166 14 -14 36 7 43 40 l6 36 69 0
68 0 12 -40 c9 -28 18 -40 31 -40 10 0 18 1 18 3 0 1 -14 45 -30 97 -17 52
-40 125 -51 163 -19 57 -25 67 -45 67 -21 0 -28 -14 -75 -160z m105 23 l24
-83 -54 0 c-30 0 -54 3 -54 6 0 8 38 141 47 164 6 18 6 18 37 -87z"/>
<path d="M8627 6880 c-59 -47 -39 -114 45 -149 82 -34 83 -35 83 -77 0 -37 -2
-40 -37 -48 -43 -11 -88 12 -88 44 0 13 -7 20 -20 20 -26 0 -27 -39 -1 -71 17
-21 28 -24 86 -24 58 0 69 3 86 24 25 31 25 95 0 120 -11 11 -43 28 -72 38
-61 21 -86 51 -69 82 22 42 101 36 115 -8 4 -12 15 -21 26 -21 16 0 19 5 14
23 -18 63 -113 90 -168 47z"/>
<path d="M9132 6738 c3 -146 5 -163 21 -166 15 -3 17 5 17 67 l0 71 60 0 c53
0 64 3 85 26 18 20 25 38 25 68 -1 72 -37 96 -146 96 l-64 0 2 -162z m167 92
c21 -61 -9 -90 -91 -90 l-38 0 0 60 0 60 59 0 c57 0 59 -1 70 -30z"/>
<path d="M9547 6893 c-3 -5 -26 -75 -52 -158 -26 -82 -49 -153 -52 -157 -2 -5
5 -8 16 -8 15 0 23 10 31 40 l11 40 68 0 69 0 9 -37 c7 -29 14 -39 32 -41 19
-3 22 0 17 13 -3 9 -27 83 -53 166 -42 133 -50 149 -70 149 -12 0 -24 -3 -26
-7z m51 -115 c12 -46 22 -86 22 -90 0 -14 -100 -9 -100 4 0 19 44 168 50 168
3 0 16 -37 28 -82z"/>
<path d="M9820 6735 c0 -158 1 -165 20 -165 18 0 20 7 20 76 l0 75 46 -3 46
-3 31 -72 c22 -52 36 -73 49 -73 23 0 23 0 -13 82 l-31 70 22 15 c32 22 43 60
29 100 -15 45 -57 63 -149 63 l-70 0 0 -165z m180 106 c29 -55 -5 -91 -87 -91
l-53 0 0 55 0 55 65 0 c53 0 66 -3 75 -19z"/>
<path d="M10257 6893 c-3 -5 -26 -75 -52 -158 -26 -82 -49 -153 -52 -157 -2
-5 4 -8 15 -8 13 0 24 13 35 40 l16 41 63 -3 c62 -3 63 -3 74 -38 8 -24 18
-36 34 -38 15 -3 21 1 17 10 -2 7 -26 82 -53 166 -43 135 -51 152 -71 152 -12
0 -24 -3 -26 -7z m73 -200 c0 -9 -16 -13 -50 -13 -31 0 -50 4 -50 11 0 14 40
150 48 163 5 8 51 -135 52 -161z"/>
<path d="M10720 6896 c0 -3 -1 -73 -1 -156 0 -82 1 -154 1 -160 0 -5 7 -10 15
-10 13 0 15 23 15 143 l1 142 29 -110 c17 -60 33 -123 36 -138 7 -27 29 -46
40 -34 3 3 23 68 44 144 l39 138 0 -142 c1 -136 2 -143 21 -143 19 0 20 7 20
166 l0 165 -32 -3 -32 -3 -37 -145 c-21 -82 -38 -132 -39 -115 -1 17 -16 82
-33 145 -30 109 -34 115 -60 118 -15 2 -27 1 -27 -2z"/>
<path d="M11177 6880 c-42 -33 -57 -71 -57 -144 0 -76 10 -108 46 -141 38 -35
111 -35 153 1 65 55 69 215 6 274 -36 34 -111 39 -148 10z m120 -34 c27 -23
28 -29 28 -109 0 -77 -2 -88 -25 -112 -25 -27 -35 -28 -115 -13 -12 2 -14 9
-21 101 -7 82 -1 110 28 137 29 27 71 25 105 -4z"/>
<path d="M11490 6880 c0 -17 7 -20 45 -20 l45 0 0 -145 c0 -138 1 -145 20
-145 11 0 19 3 19 8 -1 4 -1 69 0 145 l1 137 45 0 c38 0 45 3 45 20 0 19 -7
20 -110 20 -103 0 -110 -1 -110 -20z"/>
<path d="M11840 6735 c0 -140 2 -165 15 -165 13 0 15 25 15 165 0 140 -2 165
-15 165 -13 0 -15 -25 -15 -165z"/>
<path d="M12000 6893 c0 -5 22 -78 48 -163 44 -143 50 -155 73 -158 22 -3 27
2 38 40 7 24 25 86 41 138 43 142 45 150 27 150 -15 0 -30 -40 -82 -224 -9
-32 -20 -55 -24 -50 -4 5 -25 69 -46 142 -31 108 -42 132 -57 132 -10 0 -18
-3 -18 -7z"/>
<path d="M12432 6873 c-18 -45 -92 -284 -92 -295 0 -24 34 0 44 32 11 34 12
35 69 38 66 3 82 -5 91 -48 4 -21 11 -30 26 -30 25 0 25 -3 -4 83 -13 40 -36
111 -51 160 -25 75 -32 87 -51 87 -14 0 -25 -9 -32 -27z m60 -103 c12 -36 23
-71 26 -77 3 -10 -11 -13 -52 -13 -37 0 -56 4 -56 12 0 26 55 180 58 162 2
-10 13 -48 24 -84z"/>
<path d="M12710 6735 c0 -158 1 -165 20 -165 18 0 20 7 20 76 l0 75 46 -3 46
-3 31 -72 c22 -52 36 -73 49 -73 23 0 23 -2 -14 80 l-31 71 22 15 c33 23 44
60 30 101 -15 45 -57 63 -149 63 l-70 0 0 -165z m180 106 c28 -54 -7 -91 -85
-91 l-55 0 0 55 0 55 65 0 c53 0 66 -3 75 -19z"/>
<path d="M13240 6880 c0 -17 7 -20 45 -20 l45 0 0 -145 c0 -138 1 -145 20
-145 19 0 20 7 20 145 l0 145 45 0 c38 0 45 3 45 20 0 19 -7 20 -110 20 -103
0 -110 -1 -110 -20z"/>
<path d="M13590 6767 c0 -131 1 -136 26 -166 22 -27 32 -31 76 -31 43 0 54 4
79 31 l29 31 0 134 c0 127 -1 134 -20 134 -19 0 -20 -7 -20 -133 0 -117 -2
-136 -18 -150 -24 -22 -64 -22 -91 1 -19 15 -21 29 -23 147 -3 114 -5 130 -20
133 -16 3 -18 -8 -18 -131z"/>
<path d="M14192 6887 c-45 -26 -57 -56 -57 -148 0 -96 13 -132 57 -155 68 -35
148 -5 167 63 12 42 -15 56 -30 15 -24 -63 -79 -81 -129 -43 -22 17 -25 29
-28 96 -3 44 1 87 8 104 12 29 46 51 81 51 26 0 69 -43 69 -70 0 -13 7 -20 20
-20 11 0 20 5 20 10 0 24 -30 79 -51 94 -28 19 -95 21 -127 3z"/>
<path d="M14577 6893 c-2 -5 -21 -62 -42 -128 -21 -66 -44 -137 -51 -157 -12
-35 -12 -38 5 -38 12 0 23 14 34 40 l15 40 62 0 62 0 15 -40 c11 -28 22 -40
36 -40 13 0 17 5 13 16 -13 33 -85 260 -92 287 -4 20 -12 27 -29 27 -13 0 -26
-3 -28 -7z m54 -127 c27 -85 27 -86 -31 -86 -31 0 -50 4 -50 11 0 15 40 151
48 164 4 6 8 1 10 -10 2 -11 12 -47 23 -79z"/>
<path d="M14850 6735 c0 -158 1 -165 20 -165 18 0 20 7 20 76 l0 75 47 -3 47
-3 29 -72 c22 -54 34 -73 48 -73 11 0 19 2 19 4 0 2 -13 36 -30 76 l-30 72 24
19 c30 23 40 66 26 103 -14 37 -64 56 -150 56 l-70 0 0 -165z m174 109 c22
-21 20 -50 -4 -74 -15 -15 -33 -20 -75 -20 l-55 0 0 55 0 55 59 0 c41 0 65 -5
75 -16z"/>
<path d="M15220 6736 c0 -141 2 -166 15 -166 12 0 15 15 15 75 l0 75 48 0 48
0 30 -72 c23 -56 36 -74 52 -76 21 -3 21 -2 -8 63 -17 37 -30 72 -30 77 0 6
11 21 25 34 35 32 35 91 -1 125 -22 21 -37 24 -110 28 l-84 3 0 -166z m168
112 c17 -17 15 -58 -5 -80 -12 -13 -31 -18 -75 -18 l-58 0 0 55 0 55 63 0 c36
0 68 -5 75 -12z"/>
<path d="M15580 6735 l0 -165 101 0 c90 0 100 2 97 18 -3 14 -16 17 -81 20
l-77 3 0 54 0 55 70 0 c56 0 70 3 70 15 0 11 -13 15 -54 15 -80 0 -86 4 -86
61 l0 49 81 0 c71 0 80 2 77 18 -3 14 -17 17 -101 20 l-97 3 0 -166z"/>
<path d="M15920 6735 c0 -158 1 -165 20 -165 18 0 20 7 20 76 l0 75 47 -3 48
-3 29 -72 c22 -54 35 -73 49 -73 21 0 19 12 -19 97 l-23 53 30 29 c30 31 37
67 19 102 -18 33 -64 49 -145 49 l-75 0 0 -165z m178 113 c17 -17 15 -58 -5
-80 -12 -13 -31 -18 -75 -18 l-58 0 0 55 0 55 63 0 c36 0 68 -5 75 -12z"/>
<path d="M16352 6873 c-14 -36 -92 -288 -92 -297 0 -4 7 -6 17 -4 9 2 22 19
28 38 11 34 13 35 69 38 65 3 81 -5 90 -48 4 -22 11 -30 26 -30 25 0 28 -15
-38 188 -40 126 -48 142 -68 142 -14 0 -25 -9 -32 -27z m71 -140 l16 -53 -55
0 c-35 0 -54 4 -54 12 0 6 12 49 27 95 l27 83 11 -43 c7 -23 19 -66 28 -94z"/>
<path d="M10945 5188 c-79 -16 -107 -26 -133 -49 -18 -16 -36 -29 -40 -29 -8
0 -71 -100 -106 -168 -11 -20 -20 -52 -20 -69 -1 -25 -6 -33 -19 -33 -15 0
-17 -5 -12 -30 4 -16 2 -30 -3 -30 -11 0 -32 -45 -32 -70 0 -10 -8 -26 -17
-36 -24 -24 -25 -173 -1 -230 18 -44 48 -196 48 -246 0 -19 6 -43 14 -53 9
-13 11 -25 5 -37 -6 -11 -5 -18 4 -21 8 -4 7 -6 -3 -6 -17 -1 -90 -75 -90 -91
0 -6 4 -8 10 -5 6 3 7 -1 4 -9 -3 -9 -10 -16 -15 -16 -5 0 -9 -8 -9 -17 0 -14
-2 -15 -9 -5 -6 10 -10 10 -21 -2 -10 -13 -9 -17 4 -22 15 -6 14 -8 -6 -18
-14 -7 -23 -21 -23 -35 0 -14 -6 -26 -12 -28 -7 -3 -13 4 -13 14 -1 17 -1 17
-11 1 -5 -10 -21 -18 -33 -18 -16 0 -26 -7 -30 -22 -3 -13 -18 -37 -35 -55
-16 -17 -27 -33 -25 -35 2 -2 -12 -19 -32 -37 -19 -19 -32 -36 -29 -39 3 -3
11 0 17 6 24 24 27 11 5 -23 -12 -19 -32 -37 -44 -41 -26 -7 -37 -30 -17 -38
8 -3 14 -15 14 -26 0 -25 -37 -28 -42 -3 -2 11 -16 -1 -46 -40 -23 -31 -68
-85 -100 -119 -50 -55 -109 -125 -162 -192 -8 -10 -27 -33 -41 -50 -29 -34
-110 -152 -216 -311 -65 -98 -207 -344 -253 -440 -69 -143 -147 -339 -155
-389 -4 -27 -16 -79 -27 -115 -11 -36 -21 -70 -23 -76 -1 -5 -7 -21 -12 -35
-6 -14 -14 -40 -18 -59 -7 -31 -5 -33 14 -28 11 3 23 1 26 -3 3 -5 -6 -42 -19
-82 -20 -59 -37 -118 -51 -168 -1 -3 -7 -23 -13 -45 -17 -58 -15 -221 4 -275
66 -190 175 -290 400 -368 96 -33 179 -42 385 -42 l195 0 -2 -75 c-1 -50 -7
-84 -18 -100 -24 -36 -20 -66 19 -139 19 -36 37 -81 39 -98 10 -83 19 -110 42
-125 14 -8 29 -33 35 -56 6 -22 18 -51 26 -64 l15 -23 835 0 c792 0 835 1 828
18 -5 9 -11 42 -14 72 -7 53 -20 88 -46 120 -6 8 -20 38 -29 65 -17 45 -42
106 -81 190 -8 17 -26 57 -40 90 -14 33 -30 68 -35 77 -18 33 -12 40 29 33 97
-16 204 -51 466 -150 39 -15 95 -35 125 -45 30 -10 98 -35 150 -55 52 -20 129
-48 170 -62 41 -14 99 -36 129 -49 29 -13 63 -24 75 -24 12 0 26 -4 32 -9 5
-4 34 -16 64 -26 50 -16 84 -28 173 -64 16 -6 57 -21 90 -32 34 -11 67 -24 72
-29 6 -4 26 -11 45 -15 19 -4 44 -13 55 -19 11 -7 31 -15 45 -19 14 -3 57 -18
95 -33 l70 -28 283 -3 c155 -2 281 0 280 4 -2 4 5 19 15 33 l17 25 12 -33 12
-32 93 0 c51 0 93 2 93 4 0 3 -23 19 -50 37 -54 35 -58 50 -19 60 15 4 5 6
-26 5 -37 -1 -65 6 -104 27 -65 33 -75 34 -107 2 -57 -57 -109 -62 -209 -20
-16 7 -57 24 -90 38 -33 14 -94 38 -135 53 -41 14 -97 37 -124 50 -28 13 -54
24 -59 24 -5 0 -23 7 -40 15 -46 21 -172 73 -242 100 -33 12 -94 37 -135 55
-41 17 -93 38 -115 46 -22 8 -112 44 -200 80 -177 73 -250 103 -280 114 -11 5
-41 17 -67 29 -26 12 -50 21 -52 21 -2 0 -20 7 -40 15 -20 8 -38 15 -41 15 -3
0 -22 9 -42 20 -21 11 -45 20 -53 20 -9 0 -20 4 -26 9 -11 12 -154 71 -170 71
-17 0 -24 26 -11 39 6 6 17 11 24 11 9 0 11 8 8 23 -4 16 0 29 14 41 12 11 21
26 21 34 0 10 6 12 18 7 9 -4 31 -11 47 -15 28 -7 98 -42 191 -96 47 -26 77
-66 77 -101 0 -18 5 -23 26 -23 15 0 32 5 39 12 17 17 15 64 -4 94 -27 40 -6
41 32 1 36 -37 36 -37 21 -70 -30 -60 21 -70 76 -15 10 9 25 14 37 11 21 -6
60 25 60 47 0 5 14 24 30 42 32 33 36 55 24 142 -6 42 -13 52 -59 89 -144 114
-189 137 -339 173 -66 15 -76 21 -76 39 0 17 -15 29 -67 54 -79 37 -132 66
-146 80 -16 16 -42 251 -42 386 0 72 6 176 14 231 28 201 15 236 -153 414 -28
30 -63 71 -78 90 -14 19 -69 82 -123 140 -139 150 -133 135 -101 230 15 44 43
112 63 152 46 95 84 198 78 209 -3 5 -43 27 -88 49 -45 22 -100 54 -122 70
-22 17 -61 44 -87 61 -42 28 -46 34 -41 63 4 27 -2 37 -41 76 -25 24 -46 50
-46 56 0 20 56 27 147 19 99 -8 118 0 158 70 20 33 33 45 50 45 31 0 55 25 55
56 0 14 7 27 18 31 25 9 32 24 20 43 -18 29 -3 50 36 50 52 0 62 25 35 92 -43
108 -50 140 -34 158 28 31 37 122 25 248 -6 68 -7 118 -2 120 5 1 17 9 28 16
15 11 16 18 8 37 -6 13 -8 35 -4 49 6 26 -23 94 -57 133 -11 12 -26 42 -33 66
-8 25 -24 58 -35 75 -17 26 -29 32 -72 36 -28 3 -60 13 -70 23 -11 9 -28 17
-39 17 -10 0 -39 12 -64 26 -37 21 -52 24 -91 19 -27 -4 -49 -2 -53 3 -3 6
-15 8 -26 5 -11 -3 -38 4 -60 16 -48 25 -55 25 -185 -1z m-745 -1752 c0 -2 -8
-6 -19 -9 -14 -3 -18 1 -19 24 -1 27 0 27 19 8 10 -10 19 -21 19 -23z m-30
-49 c0 -2 -11 -18 -25 -37 -26 -36 -33 -28 -13 15 6 14 17 25 25 25 7 0 13 -1
13 -3z m-81 -204 c7 -21 10 -57 8 -80 -4 -33 -2 -43 9 -43 8 0 14 -7 14 -15 0
-9 -9 -15 -24 -15 -22 0 -25 -7 -44 -102 -12 -57 -24 -121 -28 -143 -3 -22
-12 -62 -20 -90 -17 -61 -40 -196 -49 -288 -6 -64 -8 -68 -28 -63 -57 17 -193
18 -237 3 -24 -9 -47 -14 -50 -11 -3 3 14 40 38 82 59 105 277 552 338 690 27
61 52 112 55 112 3 0 11 -17 18 -37z m33 -195 c-6 -6 -15 -8 -19 -4 -4 4 -1
11 7 16 8 5 17 7 19 4 3 -2 -1 -10 -7 -16z m-52 -492 c0 -18 -15 -36 -29 -36
-25 0 -33 11 -20 27 10 12 49 19 49 9z m20 -185 c0 -12 -20 -25 -27 -18 -7 7
6 27 18 27 5 0 9 -4 9 -9z m-761 -317 c-30 -58 -49 -79 -49 -55 0 17 32 84 53
113 34 46 32 13 -4 -58z m199 -130 c12 -4 22 -10 22 -15 0 -15 -47 -10 -60 6
-14 17 -3 20 38 9z m100 -47 c11 -8 11 -12 0 -18 -10 -7 -9 -9 5 -9 18 0 23
-15 8 -25 -5 -3 -16 1 -23 9 -8 7 -24 16 -35 20 -21 7 -21 8 -6 26 16 18 24
18 51 -3z m-120 -39 c7 -7 12 -20 12 -31 0 -14 -5 -17 -22 -12 -31 10 -52 31
-44 44 9 15 39 14 54 -1z m698 -25 c10 -15 15 -16 25 -5 7 6 21 12 32 12 28 0
146 -69 164 -96 8 -13 23 -24 33 -24 9 0 25 -9 36 -21 10 -12 46 -35 79 -51
84 -42 131 -78 114 -89 -7 -4 -10 -11 -6 -16 4 -4 16 -2 27 4 15 10 25 8 55
-12 20 -14 38 -25 42 -25 3 0 46 -20 97 -44 50 -25 99 -47 108 -50 10 -3 15
-11 12 -20 -9 -23 13 -28 46 -11 24 12 43 14 88 8 52 -8 57 -10 54 -32 -3 -20
0 -23 17 -18 29 7 26 -7 -6 -33 -35 -27 -67 -23 -158 19 -37 17 -69 31 -72 31
-4 0 -14 7 -23 15 -8 8 -42 16 -75 18 -33 2 -80 13 -105 24 -25 11 -72 30
-105 43 -71 28 -121 49 -192 80 l-53 23 0 48 c0 41 -4 51 -32 74 -27 23 -39
26 -77 22 -25 -3 -47 -11 -49 -17 -11 -31 -41 -49 -69 -41 -45 14 -140 58
-147 69 -7 11 13 72 28 87 47 46 91 56 112 28z m-586 -3 c13 -8 12 -17 -8 -72
-13 -35 -24 -67 -26 -73 -1 -5 -6 -17 -11 -25 -5 -8 -11 -24 -12 -34 -6 -33
-48 -101 -63 -101 -17 0 -16 53 1 70 5 5 9 16 9 25 0 9 9 33 20 55 24 47 24
45 4 45 -8 0 -12 5 -9 10 3 6 17 10 31 10 17 0 23 4 18 12 -5 7 -9 21 -10 32
0 11 -6 22 -12 24 -18 6 -14 20 6 25 29 8 46 7 62 -3z m-151 -61 c22 -8 29
-14 21 -19 -16 -10 -72 9 -64 21 7 11 4 11 43 -2z m-37 -63 c37 -8 52 -25 42
-49 -5 -15 -101 -20 -110 -5 -3 5 6 6 23 3 15 -3 22 -2 16 1 -7 3 -13 14 -13
24 0 11 -8 24 -17 29 -16 10 -16 10 2 7 11 -1 37 -6 57 -10z m88 -26 c0 -5 -2
-10 -4 -10 -3 0 -8 5 -11 10 -3 6 -1 10 4 10 6 0 11 -4 11 -10z m638 -32 c34
-16 60 -33 57 -38 -4 -6 -1 -10 6 -10 9 0 8 -4 -1 -15 -8 -10 -17 -12 -29 -6
-25 14 -139 25 -121 12 10 -7 11 -14 5 -18 -6 -5 -16 -19 -22 -33 -11 -24 -12
-25 -12 -2 -1 24 -31 32 -31 7 0 -8 -4 -15 -10 -15 -13 0 -13 13 2 45 6 14 20
25 30 25 15 0 16 3 6 19 -9 15 -9 25 0 46 14 30 21 29 120 -17z m-725 -45 c28
-5 33 -18 18 -41 -7 -11 -17 -10 -60 3 -28 10 -51 19 -51 22 0 15 28 32 45 27
11 -3 32 -8 48 -11z m597 -88 c0 -13 -34 -157 -45 -192 -2 -7 10 -26 28 -43
27 -26 39 -30 76 -28 42 3 45 5 73 58 41 76 51 86 71 66 13 -13 27 -14 79 -7
35 5 70 6 78 4 8 -3 6 1 -5 8 -11 6 -21 13 -23 15 -2 1 4 16 12 33 15 28 18
29 46 20 45 -16 58 -5 17 15 -42 19 -45 26 -18 50 18 16 22 16 77 -5 33 -11
77 -28 99 -36 22 -8 86 -35 143 -60 89 -40 102 -49 102 -70 0 -23 -2 -24 -40
-18 -48 8 -51 1 -8 -21 32 -16 32 -17 10 -25 -12 -5 -22 -15 -22 -24 0 -8 -5
-15 -11 -15 -8 0 -8 -4 0 -14 13 -16 17 -61 6 -92 -5 -17 1 -29 28 -55 34 -32
34 -33 15 -53 -29 -31 -51 -121 -45 -181 11 -109 67 -191 171 -252 27 -16 51
-34 54 -41 6 -20 -48 -34 -103 -27 -101 14 -211 72 -308 165 -126 119 -144
133 -207 163 -56 27 -79 32 -162 35 -53 2 -161 -1 -240 -7 -245 -18 -412 5
-549 75 -154 80 -239 216 -239 381 0 58 2 63 24 69 32 8 42 1 65 -44 37 -72
186 -183 276 -207 17 -5 37 -10 45 -13 124 -36 251 26 285 139 7 23 21 59 49
124 8 17 21 49 31 72 10 23 21 40 26 38 4 -3 10 -1 14 5 9 15 25 12 25 -5z"/>
<path d="M10524 1335 c11 -8 25 -15 30 -15 6 0 2 7 -8 15 -11 8 -25 15 -30 15
-6 0 -2 -7 8 -15z"/>
<path d="M10590 1310 c20 -13 33 -13 25 0 -3 6 -14 10 -23 10 -15 0 -15 -2 -2
-10z"/>
<path d="M9225 1300 c3 -5 8 -10 11 -10 2 0 4 5 4 10 0 6 -5 10 -11 10 -5 0
-7 -4 -4 -10z"/>
<path d="M10675 1275 c21 -8 41 -12 44 -10 5 6 -47 25 -67 25 -9 -1 1 -7 23
-15z"/>
<path d="M9232 1225 c-11 -24 -10 -25 17 -25 20 0 30 6 34 20 3 11 1 20 -3 20
-5 0 -15 2 -22 5 -9 4 -19 -4 -26 -20z"/>
<path d="M9448 1063 c6 -2 18 -2 25 0 6 3 1 5 -13 5 -14 0 -19 -2 -12 -5z"/>
<path d="M9318 993 c7 -3 16 -2 19 1 4 3 -2 6 -13 5 -11 0 -14 -3 -6 -6z"/>
<path d="M9708 993 c6 -2 18 -2 25 0 6 3 1 5 -13 5 -14 0 -19 -2 -12 -5z"/>
<path d="M9676 974 c-10 -25 -7 -59 6 -72 14 -14 62 -16 53 -2 -3 6 -18 10
-32 10 -24 0 -25 2 -20 40 5 42 3 50 -7 24z"/>
<path d="M9410 970 c8 -5 29 -9 45 -9 29 1 29 1 5 9 -14 4 -34 8 -45 9 -16 1
-17 -1 -5 -9z"/>
<path d="M10770 959 c0 -5 5 -7 10 -4 6 3 10 8 10 11 0 2 -4 4 -10 4 -5 0 -10
-5 -10 -11z"/>
<path d="M20560 3221 c0 -6 -13 -11 -30 -11 -16 0 -30 -4 -30 -8 0 -19 -62
-43 -105 -41 -40 2 -50 -1 -80 -32 -19 -19 -43 -42 -54 -53 -11 -10 -23 -31
-26 -47 -4 -16 -11 -29 -16 -29 -5 0 -9 -7 -9 -15 0 -18 80 -21 97 -4 8 8 17
8 31 0 26 -14 105 -14 118 -1 7 7 76 8 215 1 136 -6 210 -5 223 2 19 9 19 10
-2 28 -13 10 -28 32 -34 49 -6 20 -22 37 -39 44 -15 6 -45 28 -67 48 -21 19
-49 39 -63 43 -13 4 -28 11 -34 15 -18 14 -95 23 -95 11z m-127 -138 c-7 -2
-19 -2 -25 0 -7 3 -2 5 12 5 14 0 19 -2 13 -5z"/>
<path d="M16648 3203 c6 -2 18 -2 25 0 6 3 1 5 -13 5 -14 0 -19 -2 -12 -5z"/>
<path d="M16145 3190 c3 -5 23 -10 43 -9 33 1 34 2 12 9 -36 12 -62 12 -55 0z"/>
<path d="M16930 3190 c8 -5 20 -10 25 -10 6 0 3 5 -5 10 -8 5 -19 10 -25 10
-5 0 -3 -5 5 -10z"/>
<path d="M1617 3119 c-13 -13 -34 -30 -46 -37 -20 -12 -23 -11 -28 7 -6 24
-38 28 -46 7 -3 -8 -22 -20 -41 -27 -20 -7 -36 -17 -36 -21 0 -4 -7 -8 -15 -8
-8 0 -15 -4 -15 -10 0 -6 10 -5 26 2 18 8 30 9 42 1 10 -5 26 -7 37 -2 11 4
35 8 53 8 17 1 31 4 31 9 -4 23 4 32 30 32 17 0 33 -4 36 -10 3 -5 10 -10 16
-10 11 0 7 22 -6 33 -6 4 -5 10 5 16 18 12 30 5 30 -17 0 -10 8 -18 18 -19 9
-1 58 -8 107 -17 111 -20 102 -20 108 4 8 32 -87 72 -166 70 -34 -1 -74 2 -89
5 -20 6 -33 2 -51 -16z"/>
<path d="M19716 3125 c-3 -8 -2 -15 3 -15 5 0 14 7 21 15 10 12 10 15 -3 15
-8 0 -17 -7 -21 -15z"/>
<path d="M15460 3121 c0 -10 30 -24 37 -17 3 3 2 9 -2 15 -8 13 -35 15 -35 2z"/>
<path d="M19840 3120 c12 -8 9 -10 -12 -10 -17 0 -28 -5 -28 -14 0 -9 15 -13
54 -13 53 0 54 0 44 23 -8 18 -19 24 -42 24 -24 0 -27 -3 -16 -10z"/>
<path d="M7557 3113 c-4 -3 -7 -11 -7 -17 0 -6 5 -5 12 2 6 6 9 14 7 17 -3 3
-9 2 -12 -2z"/>
<path d="M7760 3104 c0 -12 4 -14 13 -7 6 6 19 13 27 16 9 3 3 6 -12 6 -20 1
-28 -4 -28 -15z"/>
<path d="M7848 3113 c6 -2 18 -2 25 0 6 3 1 5 -13 5 -14 0 -19 -2 -12 -5z"/>
<path d="M7944 3105 c-10 -8 -14 -15 -8 -15 5 0 14 4 20 9 5 5 18 11 29 14 20
5 19 5 -1 6 -11 0 -29 -6 -40 -14z"/>
<path d="M8953 3084 c-14 -14 -23 -27 -20 -30 7 -7 37 7 37 17 0 5 9 9 20 9
11 0 20 7 20 15 0 23 -28 18 -57 -11z"/>
<path d="M9033 3064 c0 -14 5 -24 13 -24 8 0 14 9 14 19 0 10 -6 21 -14 24 -9
4 -13 -2 -13 -19z"/>
<path d="M9096 3064 c11 -17 20 -22 27 -15 12 12 -8 41 -29 41 -12 0 -11 -5 2
-26z"/>
<path d="M6476 2982 c-22 -11 -25 -16 -15 -23 10 -6 4 -9 -18 -9 -23 0 -33 -5
-33 -15 0 -11 7 -14 25 -9 14 4 25 2 25 -4 0 -15 169 -27 183 -13 6 6 19 11
30 11 12 0 17 6 15 17 -2 12 -17 20 -45 25 -23 4 -51 12 -62 17 -31 17 -61 13
-62 -6 -1 -15 -2 -14 -7 2 -6 19 -9 20 -36 7z"/>
<path d="M21411 2733 c-6 -10 -11 -13 -11 -5 0 7 -5 10 -11 7 -5 -4 -41 -8
-79 -9 -47 -1 -75 -7 -87 -18 -23 -21 -73 -34 -73 -19 0 18 -16 13 -41 -14
-13 -13 -29 -25 -34 -25 -6 0 -18 -9 -27 -20 -9 -10 -35 -31 -58 -46 -22 -15
-39 -29 -36 -31 8 -8 56 9 50 18 -3 5 8 9 25 9 17 0 34 7 39 16 8 14 10 14 21
0 8 -9 21 -16 31 -16 10 0 23 -7 30 -15 7 -8 31 -20 54 -26 22 -6 48 -17 56
-24 19 -17 186 -42 320 -48 58 -3 93 -3 78 0 -19 3 -30 12 -34 29 -4 17 -11
23 -21 20 -19 -8 -35 2 -27 16 4 7 9 6 14 -2 4 -6 5 11 2 38 -2 28 0 64 6 81
6 17 8 30 4 30 -21 -3 -55 17 -62 37 -5 13 -17 22 -27 22 -10 0 -34 2 -54 6
-30 6 -39 4 -48 -11z"/>
<path d="M7080 2029 c0 -16 7 -30 16 -33 25 -9 25 -3 4 29 l-20 30 0 -26z"/>
<path d="M7815 1620 c-3 -6 1 -7 9 -4 18 7 21 14 7 14 -6 0 -13 -4 -16 -10z"/>
<path d="M20448 1423 c12 -2 30 -2 40 0 9 3 -1 5 -23 4 -22 0 -30 -2 -17 -4z"/>
<path d="M21580 1300 c0 -5 5 -10 11 -10 5 0 7 5 4 10 -3 6 -8 10 -11 10 -2 0
-4 -4 -4 -10z"/>
<path d="M16688 1293 c7 -3 16 -2 19 1 4 3 -2 6 -13 5 -11 0 -14 -3 -6 -6z"/>
<path d="M19440 1279 c0 -5 5 -7 10 -4 6 3 10 8 10 11 0 2 -4 4 -10 4 -5 0
-10 -5 -10 -11z"/>
<path d="M20688 1193 c7 -3 16 -2 19 1 4 3 -2 6 -13 5 -11 0 -14 -3 -6 -6z"/>
<path d="M17680 1186 c0 -2 7 -7 16 -10 8 -3 12 -2 9 4 -6 10 -25 14 -25 6z"/>
<path d="M18548 1163 c7 -3 16 -2 19 1 4 3 -2 6 -13 5 -11 0 -14 -3 -6 -6z"/>
<path d="M21410 1166 c0 -9 40 -13 46 -5 3 5 -6 9 -20 9 -14 0 -26 -2 -26 -4z"/>
<path d="M17288 1128 c9 -9 15 -9 24 0 9 9 7 12 -12 12 -19 0 -21 -3 -12 -12z"/>
<path d="M18765 1050 c3 -5 8 -10 11 -10 2 0 4 5 4 10 0 6 -5 10 -11 10 -5 0
-7 -4 -4 -10z"/>
<path d="M21625 900 c-16 -7 -13 -9 18 -9 20 -1 37 4 37 9 0 12 -27 12 -55 0z"/>
<path d="M21533 883 c9 -2 25 -2 35 0 9 3 1 5 -18 5 -19 0 -27 -2 -17 -5z"/>
<path d="M14008 853 c6 -2 18 -2 25 0 6 3 1 5 -13 5 -14 0 -19 -2 -12 -5z"/>
<path d="M8118 803 c7 -3 16 -2 19 1 4 3 -2 6 -13 5 -11 0 -14 -3 -6 -6z"/>
<path d="M16048 783 c6 -2 18 -2 25 0 6 3 1 5 -13 5 -14 0 -19 -2 -12 -5z"/>
<path d="M21058 783 c6 -2 18 -2 25 0 6 3 1 5 -13 5 -14 0 -19 -2 -12 -5z"/>
<path d="M16220 769 c0 -5 5 -7 10 -4 6 3 10 8 10 11 0 2 -4 4 -10 4 -5 0 -10
-5 -10 -11z"/>
<path d="M8558 703 c7 -3 16 -2 19 1 4 3 -2 6 -13 5 -11 0 -14 -3 -6 -6z"/>
<path d="M5345 670 c-3 -5 1 -10 10 -10 9 0 13 5 10 10 -3 6 -8 10 -10 10 -2
0 -7 -4 -10 -10z"/>
<path d="M16772 549 c2 -7 10 -15 17 -17 8 -3 12 1 9 9 -2 7 -10 15 -17 17 -8
3 -12 -1 -9 -9z"/>
<path d="M15405 515 c-25 -12 -26 -14 -5 -9 14 4 29 10 35 15 12 12 5 11 -30
-6z"/>
<path d="M16500 500 c-12 -8 -11 -10 7 -10 12 0 25 5 28 10 8 13 -15 13 -35 0z"/>
<path d="M17555 480 c-3 -4 9 -10 25 -12 17 -3 30 -1 30 3 0 10 -50 18 -55 9z"/>
<path d="M20740 480 c0 -5 5 -10 11 -10 5 0 7 5 4 10 -3 6 -8 10 -11 10 -2 0
-4 -4 -4 -10z"/>
<path d="M20778 483 c6 -2 18 -2 25 0 6 3 1 5 -13 5 -14 0 -19 -2 -12 -5z"/>
<path d="M16084 472 c9 -8 96 -9 96 0 0 4 -23 7 -50 7 -28 -1 -48 -4 -46 -7z"/>
<path d="M22045 430 c-18 -8 -17 -9 7 -9 15 -1 30 4 33 9 7 12 -12 12 -40 0z"/>
<path d="M16783 423 c9 -2 23 -2 30 0 6 3 -1 5 -18 5 -16 0 -22 -2 -12 -5z"/>
<path d="M17445 390 c-3 -5 3 -10 14 -10 11 0 23 5 26 10 3 6 -3 10 -14 10
-11 0 -23 -4 -26 -10z"/>
<path d="M22228 293 c7 -3 16 -2 19 1 4 3 -2 6 -13 5 -11 0 -14 -3 -6 -6z"/>
<path d="M20408 243 c7 -3 16 -2 19 1 4 3 -2 6 -13 5 -11 0 -14 -3 -6 -6z"/>
<path d="M20443 173 c9 -2 23 -2 30 0 6 3 -1 5 -18 5 -16 0 -22 -2 -12 -5z"/>
<path d="M16668 163 c7 -3 16 -2 19 1 4 3 -2 6 -13 5 -11 0 -14 -3 -6 -6z"/>
<path d="M22238 163 c7 -3 16 -2 19 1 4 3 -2 6 -13 5 -11 0 -14 -3 -6 -6z"/>
<path d="M16785 80 c3 -5 8 -10 11 -10 2 0 4 5 4 10 0 6 -5 10 -11 10 -5 0 -7
-4 -4 -10z"/>
<path d="M19960 79 c-29 -5 -26 -7 22 -8 31 0 59 2 61 7 6 9 -35 9 -83 1z"/>
</g>
</svg>
